<svg width="24" height="25" viewBox="0 0 24 25" fill="none" xmlns="http://www.w3.org/2000/svg">
<path d="M10.5 0.56418C8.67661 0.789236 6.90942 1.44565 5.38599 2.45841C3.02349 4.02912 1.30317 6.32658 0.496924 8.99914C0.304736 9.61804 0.117236 10.5605 0.0469238 11.1934C-0.0140137 11.7795 -0.0140137 13.2143 0.0469238 13.8004C0.553174 18.5547 3.91411 22.6151 8.50317 24.003C9.12192 24.1952 10.0641 24.3827 10.6969 24.4531C11.2829 24.514 12.7172 24.514 13.3032 24.4531C16.0782 24.1577 18.6516 22.8964 20.6297 20.8615C21.9844 19.4596 22.9454 17.8373 23.5032 15.9947C23.85 14.8553 24 13.8004 24 12.4969C24 11.517 23.9532 10.9778 23.7844 10.1291C22.936 5.81552 19.7204 2.27086 15.4969 0.99085C14.8782 0.798615 13.936 0.611067 13.3032 0.540737C12.6891 0.475094 11.1047 0.489161 10.5 0.56418ZM13.5235 5.2013C14.1563 5.37009 14.6532 5.83427 14.8079 6.41098C14.8969 6.72981 14.8594 7.21743 14.7188 7.50344C14.4516 8.0614 13.8235 8.46463 13.1766 8.50214C11.7469 8.58184 10.7813 7.12835 11.5079 5.97962C11.6297 5.78738 12 5.44511 12.1969 5.34196C12.5672 5.14972 13.1204 5.09346 13.5235 5.2013ZM12.1172 10.2088C12.7219 10.3354 13.2094 10.7011 13.4625 11.2216C13.6172 11.531 13.6172 11.5404 13.6125 12.1921C13.6079 12.947 13.6125 12.9236 13.0547 14.9116C12.5766 16.5995 12.4688 17.0918 12.4688 17.5794C12.4688 18.2734 12.6704 18.489 13.3782 18.5312C13.7297 18.5547 14.2454 18.4703 14.5829 18.3343C14.6532 18.3062 14.6532 18.339 14.5735 18.6672C14.5266 18.8688 14.4704 19.047 14.4516 19.0658C14.3672 19.1455 12.8438 19.6847 12.525 19.7456C12.0938 19.83 11.3579 19.83 11.0063 19.7456C10.2329 19.5581 9.64224 19.047 9.4688 18.4093C9.3938 18.1233 9.40786 17.4294 9.49692 16.9512C9.53911 16.7308 9.76411 15.8868 9.9938 15.0757C10.4719 13.3784 10.5938 12.8251 10.5938 12.3656C10.5938 11.8217 10.4485 11.5545 10.1157 11.4607C9.78286 11.3716 9.19224 11.4044 8.79849 11.5263C8.60161 11.592 8.43755 11.6295 8.43755 11.6107C8.44224 11.4795 8.63442 10.8793 8.6813 10.8512C8.78911 10.7808 9.8813 10.387 10.2329 10.2932C10.9125 10.1057 11.5032 10.0775 12.1172 10.2088Z" fill="black"/>
</svg>
