<svg width="18" height="18" viewBox="0 0 18 18" fill="none" xmlns="http://www.w3.org/2000/svg">
<path d="M10.5015 0.08025C10.3934 0.0603473 10.2822 0.0644675 10.1758 0.0923188C10.0694 0.12017 9.97046 0.171071 9.88595 0.241416C9.80144 0.311762 9.73342 0.39983 9.68673 0.499384C9.64004 0.598937 9.6158 0.70754 9.61575 0.8175V2.97675C8.70767 2.85627 7.78404 2.94655 6.91646 3.24056C6.04889 3.53458 5.26068 4.02445 4.61294 4.67219C3.9652 5.31993 3.47533 6.10814 3.18131 6.97571C2.8873 7.84328 2.79702 8.76691 2.9175 9.675H0.75825C0.64829 9.67505 0.539687 9.69928 0.440134 9.74598C0.34058 9.79267 0.252512 9.86068 0.182166 9.9452C0.111821 10.0297 0.0609201 10.1287 0.0330688 10.235C0.00521748 10.3414 0.00109727 10.4526 0.021 10.5607C0.318008 12.1744 1.05047 13.6761 2.1392 14.9036C3.22793 16.1311 4.63149 17.0376 6.19813 17.5251C7.76477 18.0126 9.43487 18.0626 11.0279 17.6696C12.6208 17.2767 14.0761 16.4557 15.2363 15.2955C16.3965 14.1353 17.2174 12.6801 17.6104 11.0871C18.0033 9.49412 17.9534 7.82402 17.4658 6.25738C16.9783 4.69074 16.0718 3.28718 14.8444 2.19845C13.6169 1.10972 12.1151 0.377258 10.5015 0.08025ZM8.86575 10.425C8.60351 10.4243 8.34607 10.3546 8.11925 10.2229C7.89244 10.0913 7.70423 9.90234 7.5735 9.675H5.86575C5.66684 9.675 5.47607 9.59598 5.33542 9.45533C5.19477 9.31468 5.11575 9.12391 5.11575 8.925C5.11575 8.72609 5.19477 8.53532 5.33542 8.39467C5.47607 8.25402 5.66684 8.175 5.86575 8.175H7.5735C7.70422 7.95032 7.89107 7.76346 8.11575 7.63275V5.175C8.11575 4.97609 8.19477 4.78532 8.33542 4.64467C8.47607 4.50402 8.66684 4.425 8.86575 4.425C9.06466 4.425 9.25543 4.50402 9.39608 4.64467C9.53673 4.78532 9.61575 4.97609 9.61575 5.175V7.63275C9.90183 7.79709 10.1255 8.05142 10.252 8.35613C10.3785 8.66084 10.4007 8.99882 10.3151 9.31745C10.2295 9.63608 10.041 9.91746 9.77884 10.1178C9.5167 10.3181 9.19567 10.4261 8.86575 10.425ZM7.34475 0C7.49309 0 7.63809 0.0439867 7.76143 0.126398C7.88477 0.208809 7.9809 0.325943 8.03766 0.462987C8.09443 0.600032 8.10928 0.750832 8.08034 0.896318C8.0514 1.0418 7.97997 1.17544 7.87508 1.28033C7.77019 1.38522 7.63655 1.45665 7.49107 1.48559C7.34558 1.51453 7.19478 1.49968 7.05774 1.44291C6.92069 1.38614 6.80356 1.29001 6.72115 1.16668C6.63874 1.04334 6.59475 0.898336 6.59475 0.75C6.59475 0.551088 6.67377 0.360322 6.81442 0.21967C6.95507 0.0790176 7.14584 0 7.34475 0ZM4.26975 1.317C4.41809 1.317 4.56309 1.36099 4.68643 1.4434C4.80977 1.52581 4.90589 1.64294 4.96266 1.77999C5.01943 1.91703 5.03428 2.06783 5.00534 2.21332C4.9764 2.3588 4.90497 2.49244 4.80008 2.59733C4.69519 2.70222 4.56155 2.77365 4.41607 2.80259C4.27058 2.83153 4.11978 2.81668 3.98274 2.75991C3.84569 2.70314 3.72856 2.60701 3.64615 2.48368C3.56374 2.36034 3.51975 2.21534 3.51975 2.067C3.51935 1.86822 3.59789 1.67741 3.73809 1.53649C3.8783 1.39558 4.06872 1.3161 4.2675 1.3155L4.26975 1.317ZM1.95 3.55575C2.09834 3.55575 2.24334 3.59974 2.36668 3.68215C2.49002 3.76456 2.58614 3.88169 2.64291 4.01874C2.69968 4.15578 2.71453 4.30658 2.68559 4.45207C2.65665 4.59755 2.58522 4.73119 2.48033 4.83608C2.37544 4.94097 2.2418 5.0124 2.09632 5.04134C1.95083 5.07028 1.80003 5.05543 1.66299 4.99866C1.52594 4.94189 1.40881 4.84576 1.3264 4.72243C1.24399 4.59909 1.2 4.45409 1.2 4.30575C1.2 4.10684 1.27902 3.91607 1.41967 3.77542C1.56032 3.63477 1.75109 3.55575 1.95 3.55575ZM0.75 6.681C0.898336 6.681 1.04334 6.72499 1.16668 6.8074C1.29001 6.88981 1.38614 7.00694 1.44291 7.14399C1.49968 7.28103 1.51453 7.43183 1.48559 7.57732C1.45665 7.7228 1.38522 7.85644 1.28033 7.96133C1.17544 8.06622 1.0418 8.13765 0.896318 8.16659C0.750832 8.19553 0.600032 8.18067 0.462987 8.12391C0.325943 8.06714 0.208809 7.97101 0.126398 7.84768C0.0439867 7.72434 0 7.57934 0 7.431C-3.97304e-07 7.23235 0.0788113 7.04181 0.219139 6.9012C0.359467 6.76059 0.549848 6.6814 0.7485 6.681H0.75Z" fill="#345BF8"/>
</svg>
