<svg width="18" height="18" viewBox="0 0 18 18" fill="none" xmlns="http://www.w3.org/2000/svg">
<g clip-path="url(#clip0_1472_903)">
<path d="M3.24381 2.06852C4.19407 1.27776 5.29781 0.692387 6.48548 0.34929C7.67315 0.00619327 8.91901 -0.087193 10.1446 0.0750159C12.4118 0.369554 14.4819 1.51589 15.9346 3.28127C17.3873 5.04665 18.1138 7.29873 17.9664 9.58023C17.819 11.8617 16.8088 14.0016 15.141 15.5654C13.4732 17.1292 11.2728 17.9996 8.98656 18H3.75006C2.75587 17.9988 1.80273 17.6034 1.09973 16.9004C0.396725 16.1973 0.00125504 15.2442 6.29425e-05 14.25V8.48177V8.43452C0.0794411 7.2086 0.408047 6.01176 0.965782 4.91718C1.52352 3.8226 2.29866 2.85328 3.24381 2.06852ZM12.0001 5.25002H9.00006C8.80115 5.25002 8.61039 5.32903 8.46973 5.46969C8.32908 5.61034 8.25006 5.8011 8.25006 6.00002C8.25006 6.19893 8.32908 6.38969 8.46973 6.53035C8.61039 6.671 8.80115 6.75002 9.00006 6.75002H12.0001C12.199 6.75002 12.3897 6.671 12.5304 6.53035C12.671 6.38969 12.7501 6.19893 12.7501 6.00002C12.7501 5.8011 12.671 5.61034 12.5304 5.46969C12.3897 5.32903 12.199 5.25002 12.0001 5.25002ZM6.00006 12.75H12.0001C12.199 12.75 12.3897 12.671 12.5304 12.5303C12.671 12.3897 12.7501 12.1989 12.7501 12C12.7501 11.8011 12.671 11.6103 12.5304 11.4697C12.3897 11.329 12.199 11.25 12.0001 11.25H6.00006C5.80115 11.25 5.61039 11.329 5.46973 11.4697C5.32908 11.6103 5.25006 11.8011 5.25006 12C5.25006 12.1989 5.32908 12.3897 5.46973 12.5303C5.61039 12.671 5.80115 12.75 6.00006 12.75ZM6.00006 9.75002H12.0001C12.199 9.75002 12.3897 9.671 12.5304 9.53035C12.671 9.38969 12.7501 9.19893 12.7501 9.00002C12.7501 8.8011 12.671 8.61034 12.5304 8.46969C12.3897 8.32903 12.199 8.25002 12.0001 8.25002H6.00006C5.80115 8.25002 5.61039 8.32903 5.46973 8.46969C5.32908 8.61034 5.25006 8.8011 5.25006 9.00002C5.25006 9.19893 5.32908 9.38969 5.46973 9.53035C5.61039 9.671 5.80115 9.75002 6.00006 9.75002Z" fill="#1C212D" fill-opacity="0.8"/>
</g>
<defs>
<clipPath id="clip0_1472_903">
<rect width="18" height="18" fill="white" transform="matrix(-1 0 0 1 18 0)"/>
</clipPath>
</defs>
</svg>
