<svg width="24" height="25" viewBox="0 0 24 25" fill="none" xmlns="http://www.w3.org/2000/svg">
<g clip-path="url(#clip0_2011_3484)">
<path d="M14 7.5V0.96C14.9251 1.30934 15.7653 1.85131 16.465 2.55L19.949 6.036C20.6485 6.73488 21.1909 7.57489 21.54 8.5H15C14.7348 8.5 14.4804 8.39464 14.2929 8.20711C14.1054 8.01957 14 7.76522 14 7.5ZM22 10.985V19.5C21.9984 20.8256 21.4711 22.0964 20.5338 23.0338C19.5964 23.9711 18.3256 24.4984 17 24.5H7C5.67441 24.4984 4.40356 23.9711 3.46622 23.0338C2.52888 22.0964 2.00159 20.8256 2 19.5V5.5C2.00159 4.17441 2.52888 2.90356 3.46622 1.96622C4.40356 1.02888 5.67441 0.501588 7 0.5L11.515 0.5C11.678 0.5 11.839 0.513 12 0.524V7.5C12 8.29565 12.3161 9.05871 12.8787 9.62132C13.4413 10.1839 14.2044 10.5 15 10.5H21.976C21.987 10.661 22 10.822 22 10.985ZM14 19.5C14 19.2348 13.8946 18.9804 13.7071 18.7929C13.5196 18.6054 13.2652 18.5 13 18.5H8C7.73478 18.5 7.48043 18.6054 7.29289 18.7929C7.10536 18.9804 7 19.2348 7 19.5C7 19.7652 7.10536 20.0196 7.29289 20.2071C7.48043 20.3946 7.73478 20.5 8 20.5H13C13.2652 20.5 13.5196 20.3946 13.7071 20.2071C13.8946 20.0196 14 19.7652 14 19.5ZM17 15.5C17 15.2348 16.8946 14.9804 16.7071 14.7929C16.5196 14.6054 16.2652 14.5 16 14.5H8C7.73478 14.5 7.48043 14.6054 7.29289 14.7929C7.10536 14.9804 7 15.2348 7 15.5C7 15.7652 7.10536 16.0196 7.29289 16.2071C7.48043 16.3946 7.73478 16.5 8 16.5H16C16.2652 16.5 16.5196 16.3946 16.7071 16.2071C16.8946 16.0196 17 15.7652 17 15.5Z" fill="black"/>
</g>
<defs>
<clipPath id="clip0_2011_3484">
<rect width="24" height="24" fill="white" transform="translate(0 0.5)"/>
</clipPath>
</defs>
</svg>
