<svg width="16" height="16" viewBox="0 0 16 16" fill="none" xmlns="http://www.w3.org/2000/svg">
<path d="M7.52851 4.40002C7.65353 4.27504 7.82307 4.20483 7.99984 4.20483C8.17662 4.20483 8.34616 4.27504 8.47118 4.40002L11.5285 7.45669C11.6554 7.5704 11.8209 7.63125 11.9912 7.62672C12.1615 7.6222 12.3236 7.55265 12.4443 7.43236C12.5649 7.31207 12.6349 7.15017 12.6399 6.97988C12.6449 6.8096 12.5845 6.64385 12.4712 6.51669L9.41384 3.45935C9.03879 3.08441 8.53017 2.87378 7.99984 2.87378C7.46951 2.87378 6.9609 3.08441 6.58584 3.45935L3.52851 6.51669C3.40707 6.64242 3.33987 6.81082 3.34139 6.98562C3.34291 7.16042 3.41302 7.32763 3.53663 7.45123C3.66024 7.57484 3.82744 7.64495 4.00224 7.64647C4.17704 7.64799 4.34544 7.58079 4.47118 7.45935L7.52851 4.40002Z" fill="#F04141"/>
<path d="M3.33321 11.6548C3.33325 11.478 3.40351 11.3084 3.52854 11.1834L7.52854 7.18344C7.65356 7.05846 7.8231 6.98825 7.99988 6.98825C8.17665 6.98825 8.34619 7.05846 8.47121 7.18344L12.4712 11.1834C12.5349 11.2449 12.5857 11.3185 12.6206 11.3998C12.6556 11.4812 12.6739 11.5687 12.6747 11.6572C12.6755 11.7457 12.6586 11.8335 12.6251 11.9154C12.5916 11.9973 12.5421 12.0718 12.4795 12.1344C12.4169 12.197 12.3424 12.2465 12.2605 12.28C12.1786 12.3135 12.0908 12.3304 12.0023 12.3296C11.9138 12.3288 11.8263 12.3104 11.7449 12.2755C11.6636 12.2406 11.59 12.1898 11.5285 12.1261L7.99988 8.60011L4.47121 12.1288C4.37782 12.2221 4.25879 12.2857 4.12924 12.3113C3.99969 12.3369 3.86545 12.3235 3.74354 12.2727C3.62163 12.2219 3.51755 12.1361 3.44449 12.0261C3.37144 11.9161 3.33271 11.7868 3.33321 11.6548Z" fill="#F04141"/>
</svg>
