<svg width="17" height="16" viewBox="0 0 17 16" fill="none" xmlns="http://www.w3.org/2000/svg">
<path d="M8.68804 11.6C8.56302 11.725 8.39348 11.7952 8.2167 11.7952C8.03993 11.7952 7.87039 11.725 7.74537 11.6L4.68804 8.54331C4.56119 8.4296 4.39562 8.36875 4.22532 8.37328C4.05502 8.3778 3.89292 8.44735 3.77229 8.56764C3.65165 8.68793 3.58165 8.84984 3.57664 9.02012C3.57164 9.19041 3.63201 9.35615 3.74537 9.48331L6.8027 12.5406C7.17776 12.9156 7.68637 13.1262 8.2167 13.1262C8.74703 13.1262 9.25565 12.9156 9.6307 12.5406L12.688 9.48331C12.8095 9.35758 12.8767 9.18918 12.8752 9.01438C12.8736 8.83958 12.8035 8.67237 12.6799 8.54877C12.5563 8.42516 12.3891 8.35505 12.2143 8.35353C12.0395 8.35201 11.8711 8.41921 11.7454 8.54065L8.68804 11.6Z" fill="#808EA7"/>
<path d="M12.8834 4.34519C12.8834 4.52199 12.8131 4.69153 12.6881 4.81653L8.68806 8.81653C8.56304 8.94151 8.39351 9.01172 8.21673 9.01172C8.03995 9.01172 7.87041 8.94151 7.7454 8.81653L3.7454 4.81653C3.68172 4.75503 3.63093 4.68147 3.59599 4.60013C3.56106 4.51879 3.54266 4.43131 3.5419 4.34279C3.54113 4.25428 3.55799 4.16649 3.59151 4.08456C3.62503 4.00263 3.67454 3.92819 3.73713 3.8656C3.79973 3.803 3.87416 3.7535 3.95609 3.71998C4.03802 3.68646 4.12581 3.66959 4.21433 3.67036C4.30285 3.67113 4.39033 3.68952 4.47167 3.72446C4.553 3.7594 4.62656 3.81019 4.68806 3.87386L8.21673 7.39986L11.7454 3.87119C11.8388 3.77783 11.9578 3.7143 12.0874 3.68867C12.2169 3.66304 12.3512 3.67647 12.4731 3.72725C12.595 3.77803 12.6991 3.86387 12.7721 3.97388C12.8452 4.0839 12.8839 4.21313 12.8834 4.34519Z" fill="#808EA7"/>
</svg>
