<svg width="18" height="16" viewBox="0 0 18 16" fill="none" xmlns="http://www.w3.org/2000/svg">
<path d="M11.6769 13.1284L10.6019 12.0047L10.5436 11.946L9.48528 10.8809C9.31733 10.9105 9.14741 10.9274 8.97695 10.9313C8.59043 10.9368 8.20668 10.865 7.84799 10.72C7.4893 10.575 7.16283 10.3597 6.88756 10.0865C6.6123 9.81344 6.39372 9.488 6.24455 9.12914C6.09537 8.77027 6.01857 8.38515 6.01861 7.99615C6.02248 7.82461 6.03919 7.65361 6.06861 7.48461L4.40194 5.8074L3.10194 4.53273C2.16138 5.42456 1.35562 6.45014 0.710278 7.57685C0.637138 7.70433 0.598633 7.84895 0.598633 7.99615C0.598633 8.14336 0.637138 8.28797 0.710278 8.41545C1.23528 9.32953 4.04361 13.8664 8.95195 13.8664H9.16028C10.0832 13.8388 10.9942 13.6486 11.8519 13.3045L11.6769 13.1284ZM6.09361 2.76328L8.42695 5.11136C8.59489 5.08176 8.76482 5.06494 8.93528 5.06105C9.70883 5.06105 10.4507 5.37028 10.9977 5.92072C11.5447 6.47116 11.8519 7.21771 11.8519 7.99615C11.8481 8.16769 11.8314 8.33869 11.8019 8.5077L14.0353 10.7551L14.7353 11.4596C15.6876 10.5701 16.5047 9.54439 17.1603 8.41545C17.2334 8.28797 17.2719 8.14336 17.2719 7.99615C17.2719 7.84895 17.2334 7.70433 17.1603 7.57685C16.6269 6.646 13.6936 1.975 8.71028 2.12595C7.78732 2.1535 6.87631 2.34366 6.01861 2.68781L6.09361 2.76328ZM16.1936 14.1096L15.1103 13.0278L13.4436 11.3506L5.51028 3.35869L4.28528 2.12595L2.86028 0.691938C2.78258 0.613748 2.69034 0.551725 2.58882 0.509408C2.4873 0.467092 2.37849 0.445312 2.26861 0.445312C2.15873 0.445312 2.04992 0.467092 1.9484 0.509408C1.84689 0.551725 1.75464 0.613748 1.67694 0.691938C1.52003 0.84985 1.43187 1.06402 1.43187 1.28734C1.43187 1.51067 1.52003 1.72484 1.67694 1.88275L3.54361 3.80315L5.00195 5.22877L11.0936 11.3506L11.1519 11.4093L12.2686 12.533L12.7603 13.0278L15.0103 15.3004C15.0877 15.379 15.1799 15.4414 15.2815 15.4839C15.383 15.5265 15.4919 15.5484 15.6019 15.5484C15.712 15.5484 15.8209 15.5265 15.9224 15.4839C16.024 15.4414 16.1161 15.379 16.1936 15.3004C16.2717 15.2224 16.3337 15.1297 16.376 15.0275C16.4183 14.9253 16.4401 14.8157 16.4401 14.705C16.4401 14.5943 16.4183 14.4846 16.376 14.3825C16.3337 14.2803 16.2717 14.1875 16.1936 14.1096Z" fill="black"/>
</svg>
