<svg width="21" height="22" viewBox="0 0 21 22" fill="none" xmlns="http://www.w3.org/2000/svg">
<path d="M10.9358 12.2541C11.6261 12.2541 12.1858 11.6909 12.1858 10.9962C12.1858 10.3015 11.6261 9.73828 10.9358 9.73828C10.2454 9.73828 9.68579 10.3015 9.68579 10.9962C9.68579 11.6909 10.2454 12.2541 10.9358 12.2541Z" fill="black"/>
<path d="M13.6774 16.1284L12.6024 15.0047L12.5441 14.946L11.4858 13.8809C11.3178 13.9105 11.1479 13.9274 10.9774 13.9313C10.5909 13.9368 10.2072 13.865 9.84847 13.72C9.48978 13.575 9.16332 13.3597 8.88805 13.0865C8.61278 12.8134 8.39421 12.488 8.24504 12.1291C8.09586 11.7703 8.01906 11.3851 8.0191 10.9962C8.02297 10.8246 8.03968 10.6536 8.0691 10.4846L6.40243 8.8074L5.10243 7.53273C4.16187 8.42456 3.35611 9.45014 2.71077 10.5769C2.63763 10.7043 2.59912 10.8489 2.59912 10.9962C2.59912 11.1434 2.63763 11.288 2.71077 11.4155C3.23577 12.3295 6.0441 16.8664 10.9524 16.8664H11.1608C12.0837 16.8388 12.9947 16.6486 13.8524 16.3045L13.6774 16.1284ZM8.0941 5.76328L10.4274 8.11136C10.5954 8.08176 10.7653 8.06494 10.9358 8.06105C11.7093 8.06105 12.4512 8.37028 12.9982 8.92072C13.5451 9.47116 13.8524 10.2177 13.8524 10.9962C13.8486 11.1677 13.8319 11.3387 13.8024 11.5077L16.0358 13.7551L16.7358 14.4596C17.6881 13.5701 18.5052 12.5444 19.1608 11.4155C19.2339 11.288 19.2724 11.1434 19.2724 10.9962C19.2724 10.8489 19.2339 10.7043 19.1608 10.5769C18.6274 9.646 15.6941 4.975 10.7108 5.12595C9.78781 5.1535 8.8768 5.34366 8.0191 5.68781L8.0941 5.76328Z" fill="black"/>
</svg>
