<svg width="24" height="24" viewBox="0 0 24 24" fill="none" xmlns="http://www.w3.org/2000/svg">
<g clip-path="url(#clip0_1433_1738)">
<path d="M23.437 10.487L14.939 1.30004C14.5645 0.894821 14.1102 0.571472 13.6046 0.350325C13.0991 0.129177 12.5533 0.0150146 12.0015 0.0150146C11.4497 0.0150146 10.9039 0.129177 10.3984 0.350325C9.89283 0.571472 9.43852 0.894821 9.064 1.30004L0.581 10.484C0.208713 10.8589 -0.000155505 11.3658 8.68665e-08 11.894V21C8.68665e-08 21.7957 0.316071 22.5588 0.87868 23.1214C1.44129 23.684 2.20435 24 3 24H7V18C7.00335 17.1018 7.24932 16.2212 7.71192 15.4513C8.17451 14.6814 8.83653 14.0507 9.628 13.626C9.678 13.598 9.728 13.57 9.78 13.543C9.96671 13.45 10.1591 13.3689 10.356 13.3C10.491 13.251 10.628 13.209 10.769 13.172C10.91 13.135 11.08 13.102 11.24 13.072C11.328 13.058 11.41 13.028 11.5 13.019C11.654 13.004 11.8 13.001 11.955 13C11.971 13 11.985 12.995 12 12.995H12.018C12.3275 12.9974 12.6362 13.0286 12.94 13.088C12.974 13.095 13.008 13.098 13.04 13.105C13.325 13.1673 13.6041 13.2543 13.874 13.365C13.912 13.38 13.95 13.394 13.988 13.411C14.2462 13.5231 14.4945 13.6569 14.73 13.811L14.841 13.885C15.0696 14.044 15.2847 14.2216 15.484 14.416C15.516 14.447 15.546 14.478 15.577 14.51C15.7722 14.7105 15.9508 14.9266 16.111 15.156L16.179 15.256C16.3364 15.495 16.4732 15.7469 16.588 16.009C16.601 16.041 16.612 16.073 16.625 16.109C16.7393 16.3854 16.8283 16.6716 16.891 16.964C16.891 16.986 16.898 17.009 16.902 17.031C16.9663 17.3501 16.9991 17.6746 17 18V24H21C21.7956 24 22.5587 23.684 23.1213 23.1214C23.6839 22.5588 24 21.7957 24 21V11.879C24.0002 11.3595 23.7983 10.8603 23.437 10.487Z" fill="black"/>
<path d="M12 15C11.2044 15 10.4413 15.3161 9.87868 15.8787C9.31607 16.4413 9 17.2044 9 18V24H15V18C15 17.2044 14.6839 16.4413 14.1213 15.8787C13.5587 15.3161 12.7956 15 12 15Z" fill="black"/>
</g>
<path d="M23.437 10.487L14.939 1.30004C14.5645 0.894821 14.1102 0.571472 13.6046 0.350325C13.0991 0.129177 12.5533 0.0150146 12.0015 0.0150146C11.4497 0.0150146 10.9039 0.129177 10.3984 0.350325C9.89283 0.571472 9.43852 0.894821 9.064 1.30004L0.581 10.484C0.208713 10.8589 -0.000155505 11.3658 8.68665e-08 11.894V21C8.68665e-08 21.7957 0.316071 22.5588 0.87868 23.1214C1.44129 23.684 2.20435 24 3 24H7V18C7.00335 17.1018 7.24932 16.2212 7.71192 15.4513C8.17451 14.6814 8.83653 14.0507 9.628 13.626C9.678 13.598 9.728 13.57 9.78 13.543C9.96671 13.45 10.1591 13.3689 10.356 13.3C10.491 13.251 10.628 13.209 10.769 13.172C10.91 13.135 11.08 13.102 11.24 13.072C11.328 13.058 11.41 13.028 11.5 13.019C11.654 13.004 11.8 13.001 11.955 13C11.971 13 11.985 12.995 12 12.995H12.018C12.3275 12.9974 12.6362 13.0286 12.94 13.088C12.974 13.095 13.008 13.098 13.04 13.105C13.325 13.1673 13.6041 13.2543 13.874 13.365C13.912 13.38 13.95 13.394 13.988 13.411C14.2462 13.5231 14.4945 13.6569 14.73 13.811L14.841 13.885C15.0696 14.044 15.2847 14.2216 15.484 14.416C15.516 14.447 15.546 14.478 15.577 14.51C15.7722 14.7105 15.9508 14.9266 16.111 15.156L16.179 15.256C16.3364 15.495 16.4732 15.7469 16.588 16.009C16.601 16.041 16.612 16.073 16.625 16.109C16.7393 16.3854 16.8283 16.6716 16.891 16.964C16.891 16.986 16.898 17.009 16.902 17.031C16.9663 17.3501 16.9991 17.6746 17 18V24H21C21.7956 24 22.5587 23.684 23.1213 23.1214C23.6839 22.5588 24 21.7957 24 21V11.879C24.0002 11.3595 23.7983 10.8603 23.437 10.487Z" fill="black"/>
<defs>
<clipPath id="clip0_1433_1738">
<rect width="24" height="24" fill="white"/>
</clipPath>
</defs>
</svg>
