<svg width="12" height="12" viewBox="0 0 12 12" fill="none" xmlns="http://www.w3.org/2000/svg">
<g clip-path="url(#clip0_2011_4016)">
<path d="M1.9999 11C1.80278 11.0005 1.60751 10.962 1.42539 10.8865C1.24327 10.8111 1.07792 10.7003 0.938904 10.5605L0.166904 9.87353C0.0678452 9.78521 0.00792785 9.66116 0.000332629 9.52867C-0.00726259 9.39617 0.0380865 9.26609 0.126404 9.16703C0.214721 9.06797 0.338771 9.00805 0.471266 9.00046C0.60376 8.99286 0.733845 9.03821 0.832904 9.12653L1.6254 9.83353C1.67077 9.88448 1.72609 9.9256 1.78794 9.95437C1.8498 9.98314 1.91689 9.99895 1.98508 10.0008C2.05328 10.0027 2.12113 9.9906 2.18448 9.96527C2.24782 9.93993 2.30531 9.90191 2.3534 9.85353L4.1534 8.13803C4.20042 8.09021 4.25657 8.05234 4.31852 8.02667C4.38047 8.001 4.44695 7.98805 4.51401 7.9886C4.58107 7.98914 4.64733 8.00317 4.70885 8.02985C4.77038 8.05653 4.8259 8.09531 4.87213 8.14389C4.91836 8.19247 4.95435 8.24985 4.97795 8.31262C5.00155 8.37539 5.01228 8.44226 5.0095 8.50926C5.00673 8.57626 4.99051 8.64202 4.9618 8.70262C4.93309 8.76323 4.89249 8.81744 4.8424 8.86203L3.0499 10.569C2.91179 10.7063 2.74797 10.8151 2.5678 10.889C2.38763 10.963 2.19466 11.0007 1.9999 11ZM11.4999 10.5H6.4999C6.3673 10.5 6.24012 10.4473 6.14635 10.3536C6.05258 10.2598 5.9999 10.1326 5.9999 10C5.9999 9.86742 6.05258 9.74024 6.14635 9.64647C6.24012 9.55271 6.3673 9.50003 6.4999 9.50003H11.4999C11.6325 9.50003 11.7597 9.55271 11.8535 9.64647C11.9472 9.74024 11.9999 9.86742 11.9999 10C11.9999 10.1326 11.9472 10.2598 11.8535 10.3536C11.7597 10.4473 11.6325 10.5 11.4999 10.5ZM1.9999 7.00003C1.80278 7.00054 1.60751 6.96197 1.42539 6.88653C1.24327 6.81109 1.07792 6.70028 0.938904 6.56053L0.146404 5.76803C0.0553245 5.67373 0.00492734 5.54742 0.00606655 5.41633C0.00720576 5.28523 0.0597902 5.15982 0.152494 5.06712C0.245198 4.97441 0.370605 4.92183 0.501703 4.92069C0.632801 4.91955 0.759102 4.96995 0.853404 5.06103L1.6464 5.85353C1.74159 5.94454 1.86821 5.99534 1.9999 5.99534C2.1316 5.99534 2.25822 5.94454 2.3534 5.85353L4.1534 4.13803C4.24941 4.04639 4.37789 3.99665 4.51057 3.99975C4.64325 4.00284 4.76927 4.05852 4.8609 4.15453C4.95254 4.25054 5.00228 4.37901 4.99918 4.51169C4.99609 4.64438 4.94041 4.77039 4.8444 4.86203L3.0499 6.56903C2.91179 6.70634 2.74797 6.81508 2.5678 6.88903C2.38763 6.96298 2.19466 7.0007 1.9999 7.00003ZM11.4999 6.50003H6.4999C6.3673 6.50003 6.24012 6.44735 6.14635 6.35358C6.05258 6.25981 5.9999 6.13264 5.9999 6.00003C5.9999 5.86742 6.05258 5.74024 6.14635 5.64647C6.24012 5.55271 6.3673 5.50003 6.4999 5.50003H11.4999C11.6325 5.50003 11.7597 5.55271 11.8535 5.64647C11.9472 5.74024 11.9999 5.86742 11.9999 6.00003C11.9999 6.13264 11.9472 6.25981 11.8535 6.35358C11.7597 6.44735 11.6325 6.50003 11.4999 6.50003ZM1.9999 3.00003C1.80278 3.00054 1.60751 2.96197 1.42539 2.88653C1.24327 2.81109 1.07792 2.70028 0.938904 2.56053L0.166904 1.87353C0.0678452 1.78521 0.00792785 1.66116 0.000332629 1.52867C-0.00726259 1.39617 0.0380865 1.26609 0.126404 1.16703C0.214721 1.06797 0.338771 1.00805 0.471266 1.00046C0.60376 0.992861 0.733845 1.03821 0.832904 1.12653L1.6254 1.83353C1.67077 1.88448 1.72609 1.9256 1.78794 1.95437C1.8498 1.98314 1.91689 1.99895 1.98508 2.00083C2.05328 2.0027 2.12113 1.9906 2.18448 1.96527C2.24782 1.93993 2.30531 1.90191 2.3534 1.85353L4.1554 0.138027C4.2523 0.0517625 4.37893 0.0065369 4.50856 0.0119029C4.63818 0.0172689 4.76064 0.0728064 4.85007 0.166785C4.93951 0.260763 4.98892 0.385824 4.98786 0.515553C4.9868 0.645282 4.93536 0.76952 4.8444 0.862027L3.0499 2.56903C2.91179 2.70634 2.74797 2.81508 2.5678 2.88903C2.38763 2.96298 2.19466 3.0007 1.9999 3.00003ZM11.4999 2.50003H6.4999C6.3673 2.50003 6.24012 2.44735 6.14635 2.35358C6.05258 2.25981 5.9999 2.13264 5.9999 2.00003C5.9999 1.86742 6.05258 1.74024 6.14635 1.64647C6.24012 1.55271 6.3673 1.50003 6.4999 1.50003H11.4999C11.6325 1.50003 11.7597 1.55271 11.8535 1.64647C11.9472 1.74024 11.9999 1.86742 11.9999 2.00003C11.9999 2.13264 11.9472 2.25981 11.8535 2.35358C11.7597 2.44735 11.6325 2.50003 11.4999 2.50003Z" fill="black"/>
</g>
<defs>
<clipPath id="clip0_2011_4016">
<rect width="12" height="12" fill="white"/>
</clipPath>
</defs>
</svg>
