<svg width="24" height="25" viewBox="0 0 24 25" fill="none" xmlns="http://www.w3.org/2000/svg">
<g clip-path="url(#clip0_2011_3543)">
<path d="M7 22.5H5C4.20435 22.5 3.44129 22.1839 2.87868 21.6213C2.31607 21.0587 2 20.2956 2 19.5V5.5C2 4.70435 2.31607 3.94129 2.87868 3.37868C3.44129 2.81607 4.20435 2.5 5 2.5H7C7.26522 2.5 7.51957 2.39464 7.70711 2.20711C7.89464 2.01957 8 1.76522 8 1.5C8 1.23478 7.89464 0.98043 7.70711 0.792893C7.51957 0.605357 7.26522 0.5 7 0.5H5C3.67441 0.501588 2.40356 1.02888 1.46622 1.96622C0.528882 2.90356 0.00158786 4.17441 0 5.5L0 19.5C0.00158786 20.8256 0.528882 22.0964 1.46622 23.0338C2.40356 23.9711 3.67441 24.4984 5 24.5H7C7.26522 24.5 7.51957 24.3946 7.70711 24.2071C7.89464 24.0196 8 23.7652 8 23.5C8 23.2348 7.89464 22.9804 7.70711 22.7929C7.51957 22.6054 7.26522 22.5 7 22.5Z" fill="black"/>
<path d="M18.538 19.207L23.125 14.621C23.6857 14.0576 24.0005 13.295 24.0005 12.5C24.0005 11.7051 23.6857 10.9425 23.125 10.379L18.538 5.79304C18.3494 5.61088 18.0968 5.51009 17.8346 5.51237C17.5724 5.51465 17.3216 5.61981 17.1362 5.80522C16.9508 5.99063 16.8456 6.24144 16.8433 6.50364C16.841 6.76584 16.9418 7.01844 17.124 7.20704L21.416 11.5H6C5.73478 11.5 5.48043 11.6054 5.29289 11.7929C5.10536 11.9805 5 12.2348 5 12.5C5 12.7653 5.10536 13.0196 5.29289 13.2071C5.48043 13.3947 5.73478 13.5 6 13.5H21.417L17.124 17.793C17.0285 17.8853 16.9523 17.9956 16.8999 18.1176C16.8475 18.2396 16.8199 18.3709 16.8188 18.5036C16.8176 18.6364 16.8429 18.7681 16.8932 18.891C16.9435 19.0139 17.0177 19.1255 17.1116 19.2194C17.2055 19.3133 17.3172 19.3876 17.44 19.4379C17.5629 19.4881 17.6946 19.5134 17.8274 19.5123C17.9602 19.5111 18.0914 19.4836 18.2134 19.4311C18.3354 19.3787 18.4458 19.3026 18.538 19.207Z" fill="black"/>
</g>
<defs>
<clipPath id="clip0_2011_3543">
<rect width="24" height="24" fill="white" transform="translate(0 0.5)"/>
</clipPath>
</defs>
</svg>
