<svg width="17" height="13" viewBox="0 0 17 13" fill="none" xmlns="http://www.w3.org/2000/svg">
<path d="M14.6001 0.154053H1.93343C1.0626 0.154053 0.358014 0.866553 0.358014 1.73739L0.350098 11.2374C0.350098 12.1082 1.0626 12.8207 1.93343 12.8207H14.6001C15.4709 12.8207 16.1834 12.1082 16.1834 11.2374V1.73739C16.1834 0.866553 15.4709 0.154053 14.6001 0.154053ZM14.2834 3.51864L8.68635 7.0178C8.43302 7.17614 8.10052 7.17614 7.84718 7.0178L2.2501 3.51864C2.05218 3.39197 1.93343 3.17822 1.93343 2.94864C1.93343 2.41822 2.51135 2.10155 2.9626 2.37864L8.26677 5.69572L13.5709 2.37864C14.0222 2.10155 14.6001 2.41822 14.6001 2.94864C14.6001 3.17822 14.4814 3.39197 14.2834 3.51864Z" fill="black"/>
</svg>
