<svg width="18" height="18" viewBox="0 0 18 18" fill="none" xmlns="http://www.w3.org/2000/svg">
<g clip-path="url(#clip0_2011_3335)">
<path d="M3.24369 2.06845C4.19395 1.2777 5.29768 0.692326 6.48536 0.349229C7.67303 0.00613223 8.91889 -0.087254 10.1444 0.0749548C12.4116 0.369493 14.4818 1.51583 15.9345 3.28121C17.3872 5.04659 18.1136 7.29867 17.9662 9.58017C17.8189 11.8617 16.8087 14.0016 15.1409 15.5653C13.4731 17.1291 11.2727 17.9996 8.98644 18H3.74994C2.75574 17.9988 1.80261 17.6033 1.09961 16.9003C0.396603 16.1973 0.00113297 15.2442 -5.91278e-05 14.25V8.4817V8.43445C0.079319 7.20854 0.407925 6.01169 0.96566 4.91711C1.5234 3.82253 2.29854 2.85322 3.24369 2.06845ZM11.9999 5.24995H8.99994C8.80103 5.24995 8.61026 5.32897 8.46961 5.46962C8.32896 5.61028 8.24994 5.80104 8.24994 5.99995C8.24994 6.19887 8.32896 6.38963 8.46961 6.53028C8.61026 6.67094 8.80103 6.74995 8.99994 6.74995H11.9999C12.1989 6.74995 12.3896 6.67094 12.5303 6.53028C12.6709 6.38963 12.7499 6.19887 12.7499 5.99995C12.7499 5.80104 12.6709 5.61028 12.5303 5.46962C12.3896 5.32897 12.1989 5.24995 11.9999 5.24995ZM5.99994 12.75H11.9999C12.1989 12.75 12.3896 12.6709 12.5303 12.5303C12.6709 12.3896 12.7499 12.1989 12.7499 12C12.7499 11.801 12.6709 11.6103 12.5303 11.4696C12.3896 11.329 12.1989 11.25 11.9999 11.25H5.99994C5.80103 11.25 5.61026 11.329 5.46961 11.4696C5.32896 11.6103 5.24994 11.801 5.24994 12C5.24994 12.1989 5.32896 12.3896 5.46961 12.5303C5.61026 12.6709 5.80103 12.75 5.99994 12.75ZM5.99994 9.74995H11.9999C12.1989 9.74995 12.3896 9.67094 12.5303 9.53028C12.6709 9.38963 12.7499 9.19887 12.7499 8.99995C12.7499 8.80104 12.6709 8.61028 12.5303 8.46962C12.3896 8.32897 12.1989 8.24995 11.9999 8.24995H5.99994C5.80103 8.24995 5.61026 8.32897 5.46961 8.46962C5.32896 8.61028 5.24994 8.80104 5.24994 8.99995C5.24994 9.19887 5.32896 9.38963 5.46961 9.53028C5.61026 9.67094 5.80103 9.74995 5.99994 9.74995Z" fill="#1C212D" fill-opacity="0.8"/>
</g>
<defs>
<clipPath id="clip0_2011_3335">
<rect width="18" height="18" fill="white" transform="matrix(-1 0 0 1 18 0)"/>
</clipPath>
</defs>
</svg>
