<svg width="18" height="18" viewBox="0 0 18 18" fill="none" xmlns="http://www.w3.org/2000/svg">
<g clip-path="url(#clip0_2011_1972)">
<path d="M9 0C10.78 0 12.5201 0.527841 14.0001 1.51677C15.4802 2.50571 16.6337 3.91131 17.3149 5.55585C17.9961 7.20038 18.1743 9.00998 17.8271 10.7558C17.4798 12.5016 16.6226 14.1053 15.364 15.364C14.1053 16.6226 12.5016 17.4798 10.7558 17.8271C9.00998 18.1743 7.20038 17.9961 5.55585 17.3149C3.91131 16.6337 2.5057 15.4802 1.51677 14.0001C0.527838 12.5201 -3.8147e-06 10.78 -3.8147e-06 9C0.00257683 6.61384 0.951616 4.32616 2.63888 2.63889C4.32615 0.951621 6.61384 0.00258081 9 0V0ZM8.25 8.90925C8.24992 9.03638 8.28216 9.16145 8.34369 9.27271C8.40522 9.38396 8.49402 9.47774 8.60175 9.54525L11.4817 11.3453C11.5655 11.3975 11.6587 11.4328 11.756 11.4491C11.8534 11.4654 11.953 11.4624 12.0492 11.4401C12.1453 11.4179 12.2362 11.377 12.3166 11.3196C12.3969 11.2623 12.4652 11.1897 12.5175 11.106C12.5698 11.0223 12.6051 10.9291 12.6214 10.8317C12.6377 10.7344 12.6346 10.6348 12.6124 10.5386C12.5902 10.4424 12.5492 10.3515 12.4919 10.2712C12.4346 10.1908 12.362 10.1226 12.2782 10.0703L9.75 8.49375V5.25C9.75 5.05109 9.67098 4.86032 9.53033 4.71967C9.38967 4.57902 9.19891 4.5 9 4.5C8.80108 4.5 8.61032 4.57902 8.46967 4.71967C8.32901 4.86032 8.25 5.05109 8.25 5.25V8.90925Z" fill="#FF9E01"/>
</g>
<defs>
<clipPath id="clip0_2011_1972">
<rect width="18" height="18" fill="white" transform="matrix(-1 0 0 1 18 0)"/>
</clipPath>
</defs>
</svg>
