<svg width="24" height="25" viewBox="0 0 24 25" fill="none" xmlns="http://www.w3.org/2000/svg">
<g clip-path="url(#clip0_2011_3536)">
<path d="M16 0.8C16.7058 1.04198 17.348 1.43982 17.879 1.964L19.535 3.622C20.0598 4.15229 20.458 4.79426 20.7 5.5H16V0.8ZM21 7.5V19.5C20.9984 20.8256 20.4711 22.0964 19.5338 23.0338C18.5964 23.9711 17.3256 24.4984 16 24.5H8C6.67441 24.4984 5.40356 23.9711 4.46622 23.0338C3.52888 22.0964 3.00159 20.8256 3 19.5V5.5C3.00159 4.17441 3.52888 2.90356 4.46622 1.96622C5.40356 1.02888 6.67441 0.501588 8 0.5L14 0.5V5.5C14 6.03043 14.2107 6.53914 14.5858 6.91421C14.9609 7.28929 15.4696 7.5 16 7.5H21ZM16.808 17.913C16.7308 17.8062 16.6334 17.7158 16.5212 17.6468C16.4089 17.5779 16.2842 17.5317 16.1541 17.5111C16.024 17.4905 15.8912 17.4957 15.7631 17.5266C15.6351 17.5575 15.5144 17.6134 15.408 17.691C14.7361 18.1587 13.9513 18.438 13.135 18.5C12.8152 18.4913 12.5089 18.369 12.271 18.155C11.7491 17.7409 11.1051 17.5106 10.439 17.5C9.32967 17.6043 8.27306 18.0226 7.393 18.706C7.28378 18.7839 7.19134 18.8829 7.12118 18.9972C7.05102 19.1115 7.00457 19.2388 6.98461 19.3714C6.96465 19.5041 6.97157 19.6394 7.00497 19.7693C7.03837 19.8992 7.09757 20.0211 7.17903 20.1276C7.26049 20.2342 7.36256 20.3233 7.47916 20.3896C7.59576 20.4559 7.72451 20.498 7.85774 20.5136C7.99097 20.5291 8.12596 20.5176 8.25468 20.4799C8.3834 20.4422 8.50322 20.379 8.607 20.294C9.13962 19.8769 9.77043 19.6035 10.439 19.5C10.685 19.5 10.81 19.578 11.139 19.8C11.7088 20.2501 12.4129 20.4965 13.139 20.5C14.3818 20.4432 15.5818 20.029 16.595 19.307C16.8075 19.1499 16.9491 18.9151 16.989 18.6539C17.029 18.3927 16.9639 18.1264 16.808 17.913ZM17 14.5C17 14.2348 16.8946 13.9804 16.7071 13.7929C16.5196 13.6054 16.2652 13.5 16 13.5H8C7.73478 13.5 7.48043 13.6054 7.29289 13.7929C7.10536 13.9804 7 14.2348 7 14.5C7 14.7652 7.10536 15.0196 7.29289 15.2071C7.48043 15.3946 7.73478 15.5 8 15.5H16C16.2652 15.5 16.5196 15.3946 16.7071 15.2071C16.8946 15.0196 17 14.7652 17 14.5ZM17 10.5C17 10.2348 16.8946 9.98043 16.7071 9.79289C16.5196 9.60536 16.2652 9.5 16 9.5H8C7.73478 9.5 7.48043 9.60536 7.29289 9.79289C7.10536 9.98043 7 10.2348 7 10.5C7 10.7652 7.10536 11.0196 7.29289 11.2071C7.48043 11.3946 7.73478 11.5 8 11.5H16C16.2652 11.5 16.5196 11.3946 16.7071 11.2071C16.8946 11.0196 17 10.7652 17 10.5Z" fill="black"/>
</g>
<defs>
<clipPath id="clip0_2011_3536">
<rect width="24" height="24" fill="white" transform="translate(0 0.5)"/>
</clipPath>
</defs>
</svg>
