<svg width="24" height="25" viewBox="0 0 24 25" fill="none" xmlns="http://www.w3.org/2000/svg">
<g clip-path="url(#clip0_2011_3469)">
<path d="M12 12.5C15.3137 12.5 18 9.81371 18 6.5C18 3.18629 15.3137 0.5 12 0.5C8.68629 0.5 6 3.18629 6 6.5C6 9.81371 8.68629 12.5 12 12.5Z" fill="black"/>
<path d="M12 14.5C9.61386 14.5026 7.32622 15.4517 5.63896 17.139C3.95171 18.8262 3.00265 21.1139 3 23.5C3 23.7652 3.10536 24.0196 3.29289 24.2071C3.48043 24.3946 3.73478 24.5 4 24.5H20C20.2652 24.5 20.5196 24.3946 20.7071 24.2071C20.8946 24.0196 21 23.7652 21 23.5C20.9974 21.1139 20.0483 18.8262 18.361 17.139C16.6738 15.4517 14.3861 14.5026 12 14.5Z" fill="black"/>
</g>
<defs>
<clipPath id="clip0_2011_3469">
<rect width="24" height="24" fill="white" transform="translate(0 0.5)"/>
</clipPath>
</defs>
</svg>
