<svg width="24" height="22" viewBox="0 0 24 22" fill="none" xmlns="http://www.w3.org/2000/svg">
<path d="M0 8V17C0.00158786 18.3256 0.528882 19.5964 1.46622 20.5338C2.40356 21.4711 3.67441 21.9984 5 22H19C20.3256 21.9984 21.5964 21.4711 22.5338 20.5338C23.4711 19.5964 23.9984 18.3256 24 17V8H0ZM14 18H6C5.73478 18 5.48043 17.8946 5.29289 17.7071C5.10536 17.5196 5 17.2652 5 17C5 16.7348 5.10536 16.4804 5.29289 16.2929C5.48043 16.1054 5.73478 16 6 16H14C14.2652 16 14.5196 16.1054 14.7071 16.2929C14.8946 16.4804 15 16.7348 15 17C15 17.2652 14.8946 17.5196 14.7071 17.7071C14.5196 17.8946 14.2652 18 14 18ZM18 14H6C5.73478 14 5.48043 13.8946 5.29289 13.7071C5.10536 13.5196 5 13.2652 5 13C5 12.7348 5.10536 12.4804 5.29289 12.2929C5.48043 12.1054 5.73478 12 6 12H18C18.2652 12 18.5196 12.1054 18.7071 12.2929C18.8946 12.4804 19 12.7348 19 13C19 13.2652 18.8946 13.5196 18.7071 13.7071C18.5196 13.8946 18.2652 14 18 14ZM24 6V5C23.9984 3.67441 23.4711 2.40356 22.5338 1.46622C21.5964 0.528882 20.3256 0.00158786 19 0H5C3.67441 0.00158786 2.40356 0.528882 1.46622 1.46622C0.528882 2.40356 0.00158786 3.67441 0 5L0 6H24ZM10 2C10.1978 2 10.3911 2.05865 10.5556 2.16853C10.72 2.27841 10.8482 2.43459 10.9239 2.61732C10.9996 2.80004 11.0194 3.00111 10.9808 3.19509C10.9422 3.38907 10.847 3.56725 10.7071 3.70711C10.5673 3.84696 10.3891 3.9422 10.1951 3.98079C10.0011 4.01937 9.80004 3.99957 9.61732 3.92388C9.43459 3.84819 9.27841 3.72002 9.16853 3.55557C9.05865 3.39112 9 3.19778 9 3C9 2.73478 9.10536 2.48043 9.29289 2.29289C9.48043 2.10536 9.73478 2 10 2ZM7 2C7.19778 2 7.39112 2.05865 7.55557 2.16853C7.72002 2.27841 7.84819 2.43459 7.92388 2.61732C7.99957 2.80004 8.01937 3.00111 7.98079 3.19509C7.9422 3.38907 7.84696 3.56725 7.70711 3.70711C7.56725 3.84696 7.38907 3.9422 7.19509 3.98079C7.00111 4.01937 6.80004 3.99957 6.61732 3.92388C6.43459 3.84819 6.27841 3.72002 6.16853 3.55557C6.05865 3.39112 6 3.19778 6 3C6 2.73478 6.10536 2.48043 6.29289 2.29289C6.48043 2.10536 6.73478 2 7 2ZM4 2C4.19778 2 4.39112 2.05865 4.55557 2.16853C4.72002 2.27841 4.84819 2.43459 4.92388 2.61732C4.99957 2.80004 5.01937 3.00111 4.98079 3.19509C4.9422 3.38907 4.84696 3.56725 4.70711 3.70711C4.56725 3.84696 4.38907 3.9422 4.19509 3.98079C4.00111 4.01937 3.80004 3.99957 3.61732 3.92388C3.43459 3.84819 3.27841 3.72002 3.16853 3.55557C3.05865 3.39112 3 3.19778 3 3C3 2.73478 3.10536 2.48043 3.29289 2.29289C3.48043 2.10536 3.73478 2 4 2Z" fill="#1C212D"/>
</svg>
