<svg width="50" height="50" viewBox="0 0 50 50" fill="none" xmlns="http://www.w3.org/2000/svg">
<rect width="50" height="50" fill="white"/>
<path fill-rule="evenodd" clip-rule="evenodd" d="M25.1658 23.0719C25.9992 23.0719 26.7238 23.5218 27.0935 24.1841C28.4684 25.6492 31.4831 24.7843 33.9779 22.8704V22.8712C34.6116 22.2364 35.5012 21.8413 36.4862 21.8413C38.411 21.8413 39.971 23.3485 39.971 25.208C39.971 27.0672 38.411 28.5746 36.4862 28.5746C35.5009 28.5746 34.6114 28.1795 33.9775 27.5443C32.3119 26.084 28.4933 24.8934 27.0949 26.1861C26.7257 26.8497 26.0005 27.3011 25.1658 27.3011C23.9572 27.3011 22.9771 26.3542 22.9771 25.1865C22.9771 24.0185 23.9572 23.0719 25.1658 23.0719ZM36.3687 23.9002C37.1162 23.9002 37.7224 24.4859 37.7224 25.2079C37.7224 25.93 37.1162 26.5156 36.3687 26.5156C35.6215 26.5156 35.0152 25.93 35.0152 25.2079C35.0152 24.4859 35.6215 23.9002 36.3687 23.9002Z" fill="#08AFF7"/>
<path d="M24.9573 32.3754C23.0408 32.6417 22.5635 29.6914 24.1835 29.3491C25.949 29.3491 27.2615 28.835 28.0123 28.0569C28.8182 27.2218 29.2523 26.2497 29.2698 25.1658C29.2698 24.1237 28.8467 23.1781 28.0292 22.3377C27.2727 21.5311 26.2641 21.1501 25.0641 21.1501C23.9073 21.1501 23.0544 21.6205 22.2196 22.4186C21.7239 22.8974 21.0105 23.8302 20.0801 25.2248C19.0799 26.9641 18.089 28.1323 17.3932 28.8718C16.2363 30.0398 14.81 30.6196 13.0968 30.6196C11.3921 30.6196 9.94844 30.0398 8.77455 28.8801C7.59154 27.7292 7 26.3342 7 24.7126C7 23.0742 7.55675 21.713 8.67846 20.6376C9.71349 19.6377 11.4138 19.0565 12.8392 18.8951C14.4488 18.492 15.2648 21.2647 14.0534 21.8392C12.5314 22.0323 11.5137 22.3683 11.0268 22.8474C10.4963 23.3515 10.2353 23.9815 10.2353 24.7126C10.2353 25.4855 10.5136 26.1409 11.079 26.6788C11.6356 27.2249 12.3143 27.4939 13.1142 27.4939C13.9143 27.4939 14.5925 27.2249 15.1495 26.6788C15.358 26.4854 15.9058 25.7125 16.8104 24.3681C17.8454 22.4862 18.8542 21.0661 19.8371 20.1248C21.3328 18.722 23.0723 18.0244 25.0641 18.0244C27.1164 18.0244 28.8559 18.722 30.2822 20.1082C31.7434 21.5281 32.4737 23.2086 32.4737 25.1578C32.4737 27.1494 31.7409 28.853 30.2822 30.2667C28.8536 31.6507 27.0096 32.3754 24.9573 32.3754V32.3754Z" fill="black"/>
<path fill-rule="evenodd" clip-rule="evenodd" d="M36.5391 18C40.659 18 44 21.2276 44 25.2081C44 29.1884 40.659 32.4162 36.5391 32.4162C34.7109 32.4162 33.0366 31.7801 31.7393 30.7253C32.5334 29.949 33.136 29.096 33.5459 28.1671C34.3181 28.8963 35.374 29.3462 36.5391 29.3462C38.9044 29.3462 40.8224 27.4932 40.8224 25.2081C40.8224 22.9229 38.9044 21.0699 36.5391 21.0699C35.4424 21.0699 34.4423 21.4682 33.6845 22.1233C33.3163 21.1769 32.7498 20.3023 31.9857 19.4984C33.2456 18.5589 34.8246 18 36.5391 18Z" fill="black"/>
</svg>
