<svg width="24" height="22" viewBox="0 0 24 22" fill="none" xmlns="http://www.w3.org/2000/svg">
<path d="M4.00078 21.9771C3.60654 21.9781 3.216 21.901 2.85176 21.7501C2.48752 21.5992 2.15682 21.3776 1.87878 21.0981L0.334784 19.7241C0.136667 19.5475 0.0168323 19.2994 0.00164182 19.0344C-0.0135486 18.7694 0.0771495 18.5092 0.253784 18.3111C0.430418 18.113 0.678519 17.9932 0.943508 17.978C1.2085 17.9628 1.46867 18.0535 1.66678 18.2301L3.25178 19.6441C3.34252 19.746 3.45315 19.8283 3.57686 19.8858C3.70057 19.9433 3.83475 19.975 3.97114 19.9787C4.10753 19.9824 4.24324 19.9582 4.36993 19.9076C4.49661 19.8569 4.61159 19.7809 4.70778 19.6841L8.30778 16.2531C8.40181 16.1575 8.51412 16.0817 8.63802 16.0304C8.76192 15.979 8.89489 15.9531 9.029 15.9542C9.16311 15.9553 9.29563 15.9834 9.41868 16.0368C9.54173 16.0901 9.65278 16.1677 9.74524 16.2648C9.8377 16.362 9.90967 16.4767 9.95687 16.6023C10.0041 16.7278 10.0255 16.8616 10.02 16.9956C10.0144 17.1296 9.98199 17.2611 9.92458 17.3823C9.86716 17.5035 9.78596 17.6119 9.68578 17.7011L6.10078 21.1151C5.82456 21.3897 5.49691 21.6072 5.13658 21.7551C4.77624 21.903 4.39029 21.9785 4.00078 21.9771ZM23.0008 20.9771H13.0008C12.7356 20.9771 12.4812 20.8717 12.2937 20.6842C12.1061 20.4967 12.0008 20.2423 12.0008 19.9771C12.0008 19.7119 12.1061 19.4575 12.2937 19.27C12.4812 19.0825 12.7356 18.9771 13.0008 18.9771H23.0008C23.266 18.9771 23.5204 19.0825 23.7079 19.27C23.8954 19.4575 24.0008 19.7119 24.0008 19.9771C24.0008 20.2423 23.8954 20.4967 23.7079 20.6842C23.5204 20.8717 23.266 20.9771 23.0008 20.9771ZM4.00078 13.9771C3.60654 13.9781 3.216 13.901 2.85176 13.7501C2.48752 13.5992 2.15682 13.3776 1.87878 13.0981L0.293784 11.5131C0.111626 11.3245 0.0108312 11.0719 0.0131097 10.8097C0.0153881 10.5475 0.120557 10.2967 0.305965 10.1113C0.491373 9.92588 0.742186 9.82071 1.00438 9.81843C1.26658 9.81615 1.51918 9.91695 1.70778 10.0991L3.29378 11.6841C3.48415 11.8661 3.73739 11.9677 4.00078 11.9677C4.26417 11.9677 4.51742 11.8661 4.70778 11.6841L8.30778 8.25311C8.4998 8.06984 8.75675 7.97036 9.02212 7.97655C9.28748 7.98274 9.53952 8.09409 9.72278 8.28611C9.90605 8.47812 10.0055 8.73508 9.99934 9.00044C9.99315 9.2658 9.8818 9.51784 9.68978 9.70111L6.10078 13.1151C5.82456 13.3897 5.49691 13.6072 5.13658 13.7551C4.77624 13.903 4.39029 13.9785 4.00078 13.9771ZM23.0008 12.9771H13.0008C12.7356 12.9771 12.4812 12.8717 12.2937 12.6842C12.1061 12.4967 12.0008 12.2423 12.0008 11.9771C12.0008 11.7119 12.1061 11.4575 12.2937 11.27C12.4812 11.0825 12.7356 10.9771 13.0008 10.9771H23.0008C23.266 10.9771 23.5204 11.0825 23.7079 11.27C23.8954 11.4575 24.0008 11.7119 24.0008 11.9771C24.0008 12.2423 23.8954 12.4967 23.7079 12.6842C23.5204 12.8717 23.266 12.9771 23.0008 12.9771ZM4.00078 5.97711C3.60654 5.97814 3.216 5.90099 2.85176 5.75011C2.48752 5.59923 2.15682 5.37762 1.87878 5.09811L0.334784 3.72411C0.136667 3.54747 0.0168323 3.29937 0.00164182 3.03438C-0.0135486 2.76939 0.0771495 2.50922 0.253784 2.31111C0.430418 2.11299 0.678519 1.99315 0.943508 1.97796C1.2085 1.96277 1.46867 2.05347 1.66678 2.23011L3.25178 3.64411C3.34252 3.746 3.45315 3.82825 3.57686 3.88579C3.70057 3.94334 3.83475 3.97495 3.97114 3.9787C4.10753 3.98245 4.24324 3.95825 4.36993 3.90758C4.49661 3.85692 4.61159 3.78087 4.70778 3.68411L8.31178 0.253105C8.50558 0.0805758 8.75884 -0.00987541 9.01809 0.000856589C9.27733 0.0115886 9.52225 0.122664 9.70112 0.310621C9.88 0.498578 9.97881 0.7487 9.97669 1.00816C9.97458 1.26761 9.8717 1.51609 9.68978 1.70111L6.10078 5.11511C5.82456 5.38972 5.49691 5.6072 5.13658 5.75511C4.77624 5.90302 4.39029 5.97846 4.00078 5.97711ZM23.0008 4.97711H13.0008C12.7356 4.97711 12.4812 4.87175 12.2937 4.68421C12.1061 4.49668 12.0008 4.24232 12.0008 3.97711C12.0008 3.71189 12.1061 3.45754 12.2937 3.27C12.4812 3.08246 12.7356 2.97711 13.0008 2.97711H23.0008C23.266 2.97711 23.5204 3.08246 23.7079 3.27C23.8954 3.45754 24.0008 3.71189 24.0008 3.97711C24.0008 4.24232 23.8954 4.49668 23.7079 4.68421C23.5204 4.87175 23.266 4.97711 23.0008 4.97711Z" fill="#1C212D"/>
</svg>
