<svg width="20" height="20" viewBox="0 0 20 20" fill="none" xmlns="http://www.w3.org/2000/svg">
<path d="M1.66667 11.6666C2.58714 11.6666 3.33333 10.9205 3.33333 9.99998C3.33333 9.07951 2.58714 8.33331 1.66667 8.33331C0.746192 8.33331 0 9.07951 0 9.99998C0 10.9205 0.746192 11.6666 1.66667 11.6666Z" fill="black"/>
<path d="M9.99992 11.6666C10.9204 11.6666 11.6666 10.9205 11.6666 9.99998C11.6666 9.07951 10.9204 8.33331 9.99992 8.33331C9.07944 8.33331 8.33325 9.07951 8.33325 9.99998C8.33325 10.9205 9.07944 11.6666 9.99992 11.6666Z" fill="black"/>
<path d="M18.3334 11.6666C19.2539 11.6666 20.0001 10.9205 20.0001 9.99998C20.0001 9.07951 19.2539 8.33331 18.3334 8.33331C17.4129 8.33331 16.6667 9.07951 16.6667 9.99998C16.6667 10.9205 17.4129 11.6666 18.3334 11.6666Z" fill="black"/>
</svg>
