<svg width="18" height="18" viewBox="0 0 18 18" fill="none" xmlns="http://www.w3.org/2000/svg">
<g clip-path="url(#clip0_2011_3339)">
<path d="M10.6357 0.155246C10.5276 0.135343 10.4164 0.139463 10.31 0.167315C10.2037 0.195166 10.1047 0.246067 10.0202 0.316412C9.93568 0.386757 9.86767 0.474826 9.82097 0.574379C9.77428 0.673933 9.75005 0.782536 9.75 0.892496V3.05175C8.49875 2.88674 7.22725 3.11784 6.1141 3.7126C5.00094 4.30736 4.10207 5.23588 3.54374 6.36775C2.98542 7.49961 2.79569 8.77794 3.00121 10.0232C3.20673 11.2684 3.79717 12.418 4.68959 13.3104C5.58202 14.2028 6.73158 14.7933 7.97682 14.9988C9.22205 15.2043 10.5004 15.0146 11.6322 14.4562C12.7641 13.8979 13.6926 12.999 14.2874 11.8859C14.8821 10.7727 15.1133 9.50124 14.9482 8.25H17.1127C17.2227 8.24994 17.3313 8.22571 17.4309 8.17902C17.5304 8.13232 17.6185 8.06431 17.6888 7.9798C17.7592 7.89528 17.8101 7.79633 17.8379 7.68996C17.8658 7.58359 17.8699 7.47239 17.85 7.36425C17.5133 5.57588 16.6445 3.93085 15.3573 2.64454C14.07 1.35823 12.4244 0.490599 10.6357 0.155246ZM12 9.75H10.2922C10.1777 9.94892 10.0189 10.1188 9.82818 10.2465C9.63743 10.3742 9.41986 10.4563 9.1923 10.4864C8.96474 10.5164 8.73331 10.4938 8.51593 10.42C8.29855 10.3463 8.10106 10.2235 7.93875 10.0612C7.77644 9.89893 7.65368 9.70144 7.57996 9.48406C7.50624 9.26668 7.48355 9.03525 7.51364 8.80769C7.54373 8.58013 7.6258 8.36256 7.7535 8.17181C7.88119 7.98107 8.05107 7.82228 8.25 7.70775V5.25C8.25 5.05108 8.32901 4.86032 8.46967 4.71967C8.61032 4.57901 8.80108 4.5 9 4.5C9.19891 4.5 9.38967 4.57901 9.53032 4.71967C9.67098 4.86032 9.75 5.05108 9.75 5.25V7.70775C9.97468 7.83846 10.1615 8.02531 10.2922 8.25H12C12.1989 8.25 12.3897 8.32901 12.5303 8.46967C12.671 8.61032 12.75 8.80108 12.75 9C12.75 9.19891 12.671 9.38967 12.5303 9.53032C12.3897 9.67098 12.1989 9.75 12 9.75ZM2.2395 3.726C2.38508 3.75367 2.51921 3.82386 2.62494 3.9277C2.73067 4.03154 2.80326 4.16437 2.83357 4.30944C2.86387 4.4545 2.85052 4.60529 2.7952 4.74277C2.73988 4.88025 2.64507 4.99826 2.52274 5.08191C2.40041 5.16555 2.25604 5.21108 2.10785 5.21275C1.95967 5.21442 1.81431 5.17215 1.69013 5.09128C1.56595 5.0104 1.46851 4.89456 1.41011 4.75835C1.35171 4.62215 1.33497 4.4717 1.362 4.326C1.38001 4.22888 1.41703 4.13628 1.47094 4.05351C1.52484 3.97074 1.59456 3.89944 1.67609 3.84369C1.75763 3.78794 1.84937 3.74884 1.94605 3.72864C2.04274 3.70845 2.14246 3.70755 2.2395 3.726ZM1.0395 6.71625C1.18508 6.74392 1.31921 6.81411 1.42494 6.91795C1.53067 7.02179 1.60326 7.15462 1.63357 7.29969C1.66387 7.44475 1.65052 7.59554 1.5952 7.73302C1.53988 7.8705 1.44507 7.98851 1.32274 8.07216C1.20041 8.1558 1.05604 8.20133 0.907853 8.203C0.759668 8.20467 0.614311 8.1624 0.490129 8.08153C0.365947 8.00065 0.268506 7.88481 0.210106 7.7486C0.151707 7.6124 0.134966 7.46195 0.161997 7.31625C0.180026 7.21936 0.216974 7.12697 0.270729 7.04437C0.324483 6.96177 0.393989 6.89058 0.475274 6.83485C0.55656 6.77913 0.64803 6.73997 0.744457 6.71962C0.840883 6.69927 0.940376 6.69812 1.03725 6.71625H1.0395ZM7.596 16.3672C7.7417 16.3951 7.87587 16.4656 7.98153 16.5697C8.08719 16.6738 8.1596 16.8069 8.1896 16.9522C8.2196 17.0975 8.20584 17.2484 8.15006 17.3859C8.09429 17.5233 7.999 17.6412 7.87625 17.7245C7.7535 17.8078 7.6088 17.8528 7.46046 17.8539C7.31211 17.8549 7.16679 17.812 7.04286 17.7304C6.91893 17.6489 6.82197 17.5324 6.76423 17.3958C6.70649 17.2591 6.69058 17.1084 6.7185 16.9627C6.75594 16.7679 6.86908 16.5958 7.03312 16.4842C7.19717 16.3726 7.39876 16.3305 7.59375 16.3672H7.596ZM4.506 1.425C4.65158 1.45267 4.7857 1.52286 4.89144 1.6267C4.99717 1.73054 5.06976 1.86337 5.10007 2.00844C5.13037 2.1535 5.11702 2.30429 5.0617 2.44177C5.00638 2.57925 4.91157 2.69726 4.78924 2.78091C4.66691 2.86455 4.52254 2.91008 4.37435 2.91175C4.22617 2.91342 4.08081 2.87115 3.95663 2.79028C3.83245 2.7094 3.73501 2.59356 3.67661 2.45736C3.61821 2.32115 3.60146 2.1707 3.6285 2.025C3.64651 1.92788 3.68353 1.83528 3.73744 1.75251C3.79134 1.66974 3.86106 1.59844 3.94259 1.54269C4.02413 1.48694 4.11587 1.44784 4.21255 1.42764C4.30924 1.40745 4.40896 1.40655 4.506 1.425ZM7.6365 0.156746C7.78185 0.187015 7.91495 0.259743 8.01893 0.365719C8.12291 0.471695 8.1931 0.60615 8.22061 0.75205C8.24811 0.897951 8.2317 1.04873 8.17344 1.1853C8.11518 1.32186 8.0177 1.43806 7.89334 1.51917C7.76899 1.60028 7.62336 1.64267 7.4749 1.64094C7.32643 1.63922 7.18182 1.59348 7.05938 1.5095C6.93694 1.42552 6.84218 1.30709 6.78711 1.16922C6.73203 1.03134 6.71911 0.880219 6.75 0.734996C6.79125 0.54097 6.9077 0.371191 7.07384 0.262818C7.23999 0.154445 7.4423 0.116305 7.6365 0.156746ZM0.175496 10.5345C0.203176 10.3889 0.273364 10.2548 0.377203 10.1491C0.481042 10.0433 0.613876 9.97073 0.758939 9.94042C0.904001 9.91012 1.05479 9.92347 1.19227 9.97879C1.32975 10.0341 1.44776 10.1289 1.53141 10.2513C1.61505 10.3736 1.66058 10.518 1.66225 10.6661C1.66392 10.8143 1.62165 10.9597 1.54078 11.0839C1.45991 11.208 1.34406 11.3055 1.20786 11.3639C1.07165 11.4223 0.921204 11.439 0.775496 11.412C0.678381 11.394 0.585781 11.357 0.503013 11.3031C0.420244 11.2492 0.348938 11.1794 0.293188 11.0979C0.237438 11.0164 0.198342 10.9246 0.178145 10.8279C0.157948 10.7313 0.157048 10.6315 0.175496 10.5345ZM1.43625 13.5067C1.46393 13.3612 1.53411 13.227 1.63795 13.1213C1.74179 13.0156 1.87463 12.943 2.01969 12.9127C2.16475 12.8824 2.31554 12.8957 2.45302 12.951C2.5905 13.0064 2.70851 13.1012 2.79216 13.2235C2.8758 13.3458 2.92133 13.4902 2.923 13.6384C2.92467 13.7866 2.8824 13.9319 2.80153 14.0561C2.72065 14.1803 2.60481 14.2777 2.46861 14.3361C2.3324 14.3945 2.18195 14.4113 2.03625 14.3842C1.93913 14.3662 1.84653 14.3292 1.76376 14.2753C1.68099 14.2214 1.60969 14.1517 1.55394 14.0701C1.49819 13.9886 1.45909 13.8969 1.4389 13.8002C1.4187 13.7035 1.4178 13.6038 1.43625 13.5067ZM3.72525 15.75C3.75292 15.6044 3.82311 15.4703 3.92695 15.3646C4.03079 15.2588 4.16363 15.1862 4.30869 15.1559C4.45375 15.1256 4.60454 15.139 4.74202 15.1943C4.8795 15.2496 4.99751 15.3444 5.08116 15.4668C5.1648 15.5891 5.21033 15.7335 5.212 15.8816C5.21367 16.0298 5.1714 16.1752 5.09053 16.2994C5.00965 16.4235 4.89381 16.521 4.75761 16.5794C4.6214 16.6378 4.47095 16.6545 4.32525 16.6275C4.22813 16.6095 4.13553 16.5725 4.05276 16.5186C3.96999 16.4647 3.89869 16.3949 3.84294 16.3134C3.78719 16.2319 3.74809 16.1401 3.72789 16.0434C3.7077 15.9468 3.7068 15.847 3.72525 15.75ZM15.7605 14.2747C15.6149 14.2471 15.4808 14.1769 15.3751 14.073C15.2693 13.9692 15.1967 13.8364 15.1664 13.6913C15.1361 13.5462 15.1495 13.3955 15.2048 13.258C15.2601 13.1205 15.3549 13.0025 15.4773 12.9188C15.5996 12.8352 15.744 12.7897 15.8921 12.788C16.0403 12.7863 16.1857 12.8286 16.3099 12.9095C16.434 12.9903 16.5315 13.1062 16.5899 13.2424C16.6483 13.3786 16.665 13.529 16.638 13.6747C16.6199 13.7718 16.5828 13.8643 16.5289 13.947C16.4749 14.0297 16.4052 14.1009 16.3237 14.1566C16.2421 14.2122 16.1504 14.2513 16.0538 14.2714C15.9571 14.2916 15.8575 14.2925 15.7605 14.274V14.2747ZM13.494 16.575C13.3484 16.5473 13.2143 16.4771 13.1086 16.3733C13.0028 16.2694 12.9302 16.1366 12.8999 15.9916C12.8696 15.8465 12.883 15.6957 12.9383 15.5582C12.9936 15.4207 13.0884 15.3027 13.2108 15.2191C13.3331 15.1354 13.4775 15.0899 13.6256 15.0882C13.7738 15.0866 13.9192 15.1288 14.0434 15.2097C14.1675 15.2906 14.265 15.4064 14.3234 15.5426C14.3818 15.6788 14.3985 15.8293 14.3715 15.975C14.3535 16.0721 14.3165 16.1647 14.2626 16.2475C14.2087 16.3302 14.1389 16.4016 14.0574 16.4573C13.9759 16.5131 13.8841 16.5521 13.7874 16.5723C13.6908 16.5925 13.591 16.5934 13.494 16.575ZM10.5397 17.817C10.3941 17.7892 10.2599 17.7187 10.1542 17.6147C10.0486 17.5106 9.97611 17.3775 9.94606 17.2323C9.91601 17.087 9.9297 16.9361 9.9854 16.7987C10.0411 16.6612 10.1363 16.5433 10.259 16.46C10.3817 16.3766 10.5263 16.3315 10.6746 16.3303C10.8229 16.3292 10.9683 16.372 11.0922 16.4535C11.2162 16.5349 11.3133 16.6512 11.3711 16.7878C11.429 16.9244 11.445 17.075 11.4172 17.2207C11.3793 17.4156 11.2656 17.5875 11.1011 17.6988C10.9366 17.81 10.7347 17.8514 10.5397 17.814V17.817ZM17.784 10.5C17.784 10.6483 17.74 10.7933 17.6576 10.9167C17.5752 11.04 17.4581 11.1361 17.321 11.1929C17.184 11.2497 17.0332 11.2645 16.8877 11.2356C16.7422 11.2066 16.6086 11.1352 16.5037 11.0303C16.3988 10.9254 16.3273 10.7918 16.2984 10.6463C16.2695 10.5008 16.2843 10.35 16.3411 10.213C16.3979 10.0759 16.494 9.9588 16.6173 9.87639C16.7407 9.79398 16.8857 9.75 17.034 9.75C17.2329 9.75 17.4237 9.82901 17.5643 9.96966C17.705 10.1103 17.784 10.3011 17.784 10.5Z" fill="#1C212D" fill-opacity="0.8"/>
</g>
<defs>
<clipPath id="clip0_2011_3339">
<rect width="18" height="18" fill="white"/>
</clipPath>
</defs>
</svg>
