<svg width="16" height="16" viewBox="0 0 16 16" fill="none" xmlns="http://www.w3.org/2000/svg">
<path d="M7.52846 4.40002C7.65347 4.27504 7.82301 4.20483 7.99979 4.20483C8.17656 4.20483 8.3461 4.27504 8.47112 4.40002L11.5285 7.45669C11.6553 7.5704 11.8209 7.63125 11.9912 7.62672C12.1615 7.6222 12.3236 7.55265 12.4442 7.43236C12.5648 7.31207 12.6348 7.15017 12.6398 6.97988C12.6449 6.8096 12.5845 6.64385 12.4711 6.51669L9.41379 3.45935C9.03873 3.08441 8.53012 2.87378 7.99979 2.87378C7.46946 2.87378 6.96084 3.08441 6.58579 3.45935L3.52845 6.51669C3.40702 6.64242 3.33982 6.81082 3.34134 6.98562C3.34286 7.16042 3.41297 7.32763 3.53658 7.45123C3.66018 7.57484 3.82739 7.64495 4.00219 7.64647C4.17699 7.64799 4.34539 7.58079 4.47112 7.45935L7.52846 4.40002Z" fill="#F04141"/>
<path d="M3.33316 11.6548C3.33319 11.478 3.40346 11.3085 3.52849 11.1835L7.52849 7.18347C7.65351 7.05849 7.82305 6.98828 7.99982 6.98828C8.1766 6.98828 8.34614 7.05849 8.47116 7.18347L12.4712 11.1835C12.5348 11.245 12.5856 11.3185 12.6206 11.3999C12.6555 11.4812 12.6739 11.5687 12.6747 11.6572C12.6754 11.7457 12.6586 11.8335 12.625 11.9154C12.5915 11.9974 12.542 12.0718 12.4794 12.1344C12.4168 12.197 12.3424 12.2465 12.2605 12.28C12.1785 12.3135 12.0907 12.3304 12.0022 12.3296C11.9137 12.3289 11.8262 12.3105 11.7449 12.2755C11.6636 12.2406 11.59 12.1898 11.5285 12.1261L7.99982 8.60014L4.47116 12.1288C4.37776 12.2222 4.25874 12.2857 4.12919 12.3113C3.99964 12.337 3.86539 12.3235 3.74348 12.2728C3.62157 12.222 3.51749 12.1361 3.44444 12.0261C3.37139 11.9161 3.33265 11.7869 3.33316 11.6548Z" fill="#F04141"/>
</svg>
