<svg width="24" height="25" viewBox="0 0 24 25" fill="none" xmlns="http://www.w3.org/2000/svg">
<g clip-path="url(#clip0_2011_3477)">
<path d="M15.989 13.1999V10.4999C15.989 10.2347 16.0943 9.98037 16.2819 9.79284C16.4694 9.6053 16.7238 9.49994 16.989 9.49994H17.989C18.2542 9.49994 18.5085 9.39459 18.6961 9.20705C18.8836 9.01951 18.989 8.76516 18.989 8.49994V7.49994C18.989 7.23473 19.0943 6.98037 19.2819 6.79284C19.4694 6.6053 19.7238 6.49994 19.989 6.49994H22.674C22.869 6.499 23.0597 6.44191 23.2232 6.33552C23.3867 6.22912 23.5161 6.07791 23.596 5.89994C23.9337 5.15612 24.0637 4.33469 23.972 3.52294C23.8577 2.67777 23.438 1.90366 22.7921 1.34673C22.1462 0.789807 21.3188 0.488591 20.466 0.499943C19.2627 0.500019 18.1088 0.978073 17.258 1.82894L9.34998 9.73494C8.07527 9.40379 6.7351 9.42037 5.46898 9.78294C3.72703 10.2755 2.22203 11.3815 1.23168 12.8968C0.241329 14.4122 -0.167533 16.2346 0.0805405 18.0277C0.328614 19.8209 1.21688 21.4638 2.58143 22.6534C3.94598 23.8429 5.69473 24.4988 7.50498 24.4999C7.76684 24.4997 8.02852 24.486 8.28898 24.4589C9.77913 24.2967 11.1869 23.6933 12.3321 22.7262C13.4773 21.759 14.3077 20.4719 14.717 19.0299C15.0807 17.7643 15.0969 16.424 14.764 15.1499L15.414 14.4999C15.7596 14.1525 15.9645 13.6894 15.989 13.1999ZM5.49998 20.4999C5.20331 20.4999 4.9133 20.412 4.66662 20.2471C4.41995 20.0823 4.22769 19.8481 4.11416 19.574C4.00063 19.2999 3.97092 18.9983 4.0288 18.7073C4.08668 18.4163 4.22954 18.1491 4.43932 17.9393C4.6491 17.7295 4.91637 17.5866 5.20734 17.5288C5.49831 17.4709 5.79991 17.5006 6.074 17.6141C6.34809 17.7277 6.58236 17.9199 6.74718 18.1666C6.912 18.4133 6.99998 18.7033 6.99998 18.9999C6.99998 19.3978 6.84194 19.7793 6.56064 20.0606C6.27933 20.3419 5.8978 20.4999 5.49998 20.4999Z" fill="black"/>
</g>
<defs>
<clipPath id="clip0_2011_3477">
<rect width="24" height="24" fill="white" transform="translate(0 0.5)"/>
</clipPath>
</defs>
</svg>
