<svg width="18" height="18" viewBox="0 0 18 18" fill="none" xmlns="http://www.w3.org/2000/svg">
<path d="M9 18C13.9706 18 18 13.9706 18 9C18 4.02944 13.9706 0 9 0C4.02944 0 0 4.02944 0 9C0 13.9706 4.02944 18 9 18Z" fill="#00BC8B"/>
<path d="M5.39459 10.2227L6.79773 11.6205C6.98721 11.8092 7.24416 11.9152 7.51209 11.9152C7.78002 11.9152 8.03697 11.8092 8.22645 11.6205L12.5598 7.30361C12.6211 7.24032 12.6551 7.15557 12.6543 7.0676C12.6536 6.97962 12.6181 6.89547 12.5557 6.83326C12.4932 6.77105 12.4088 6.73576 12.3205 6.735C12.2322 6.73423 12.1471 6.76805 12.0836 6.82917L7.75021 11.1461C7.68705 11.209 7.6014 11.2443 7.51209 11.2443C7.42278 11.2443 7.33713 11.209 7.27397 11.1461L5.87084 9.74825C5.80731 9.68713 5.72224 9.65331 5.63393 9.65408C5.54562 9.65484 5.46114 9.69013 5.3987 9.75234C5.33625 9.81455 5.30083 9.8987 5.30006 9.98668C5.29929 10.0746 5.33324 10.1594 5.39459 10.2227Z" fill="white" stroke="white" stroke-width="0.808333"/>
</svg>
